<svg width="1000" height="1000" xmlns="http://www.w3.org/2000/svg">

 <g>
  <title>background</title>
  <rect fill="none" id="canvas_background" height="402" width="582" y="-1" x="-1"/>
 </g>
 <g>
  <title>Layer 1</title>
  <g id="svg_1">
   <path fill="#ffffff" id="svg_2" d="m91.7,193.8l0,0zm816.6,81.6l-816.6,0c-45.1,0 -81.7,-36.6 -81.7,-81.7c0,-45.1 36.6,-81.7 81.7,-81.7l816.7,0c45.1,0 81.7,36.6 81.7,81.7c-0.1,45.2 -36.7,81.7 -81.8,81.7zm-816.6,224.6l0,0zm816.6,81.7l-816.6,0c-45.1,0 -81.7,-36.6 -81.7,-81.7c0,-45.1 36.6,-81.7 81.7,-81.7l816.7,0c45.1,0 81.7,36.6 81.7,81.7c-0.1,45.1 -36.7,81.7 -81.8,81.7zm-816.6,224.5l0,0zm816.6,81.7l-816.6,0c-45.1,0 -81.7,-36.6 -81.7,-81.7c0,-45.1 36.6,-81.7 81.7,-81.7l816.7,0c45.1,0 81.7,36.6 81.7,81.7c-0.1,45.1 -36.7,81.7 -81.8,81.7z"/>
  </g>
 </g>
</svg>