<?xml version="1.0" encoding="UTF-8"?>
<svg width="23px" height="30px" viewBox="0 0 23 30" version="1.1" xmlns="http://www.w3.org/2000/svg" xmlns:xlink="http://www.w3.org/1999/xlink">
    <!-- Generator: Sketch 52.2 (67145) - http://www.bohemiancoding.com/sketch -->
    <title>Group 3@1,5x</title>
    <desc>Created with Sketch.</desc>
    <g id="Symbols" stroke="none" stroke-width="1" fill="none" fill-rule="evenodd">
        <g id="Group-3" fill="#FFFFFF">
            <path d="M19.2104407,15.8084217 C19.1779847,11.9791359 22.1340747,10.1152996 22.2703897,10.027606 C20.5956616,7.41071864 17.9991838,7.05298456 17.0878201,7.02514534 C14.908077,6.77876817 12.7945441,8.42406653 11.6832516,8.42406653 C10.5511873,8.42406653 8.84140665,7.04880868 6.99920566,7.09056752 C4.62862145,7.12954244 2.40863295,8.60223758 1.1921831,10.8878382 C-1.31861091,15.5481249 0.554747808,22.3979669 2.95908623,26.1646144 C4.16255369,28.0103552 5.56854641,30.07185 7.40944915,29.998076 C9.2101065,29.9187342 9.88259424,28.7661902 12.0558461,28.7661902 C14.2096245,28.7661902 14.8405686,29.998076 16.717822,29.9521413 C18.6496015,29.9187342 19.8673496,28.0980487 21.0292734,26.2356044 C22.4196872,24.1212151 22.9779299,22.0374489 23,21.9316598 C22.9545616,21.9149563 19.2467914,20.3991103 19.2104407,15.8084217" id="Fill-5"></path>
            <path d="M16.4477364,4.85927971 C17.4648893,3.5605951 18.1602618,1.794217 17.9680118,0 C16.4954581,0.0668133561 14.654766,1.03978285 13.5939819,2.31062857 C12.6559107,3.42975228 11.8187366,5.26433569 12.0341658,6.98895544 C13.6880617,7.11562243 15.3869524,6.13708515 16.4477364,4.85927971" id="Fill-6"></path>
        </g>
    </g>
</svg>
