<?xml version="1.0" encoding="UTF-8"?>
<svg width="21px" height="26px" viewBox="0 0 21 26" version="1.1" xmlns="http://www.w3.org/2000/svg" xmlns:xlink="http://www.w3.org/1999/xlink">
    <!-- Generator: Sketch 52.2 (67145) - http://www.bohemiancoding.com/sketch -->
    <title>Shape@1,5x</title>
    <desc>Created with Sketch.</desc>
    <g id="Symbols" stroke="none" stroke-width="1" fill="none" fill-rule="evenodd">
        <path d="M0.549548905,4.15996919e-05 C0.531754331,-0.000185956082 0.513960051,0.000520169211 0.496234985,0.00215724071 C0.218390727,0.0178843421 0.000702810357,0.254552537 5.95768455e-06,0.541652632 L5.95768455e-06,25.4557601 C-0.000897711211,25.6519194 0.101058448,25.8332543 0.266548048,25.9298204 C0.432037649,26.0263866 0.635196868,26.0230921 0.797663419,25.9212077 L2.83384315,24.6496902 C2.87494609,24.6308827 2.91353828,24.6067075 2.94867302,24.5777577 L20.7452526,13.4641539 C20.9033044,13.366243 21,13.1899728 21,12.9997647 C21,12.8095566 20.9033044,12.6332864 20.7452526,12.5353755 L2.95687505,1.42811759 C2.95348096,1.42596183 2.95006319,1.42384601 2.94662241,1.42177056 C2.90930607,1.38994924 2.86790307,1.36360639 2.8235904,1.34349087 L0.797663419,0.0783212922 C0.722608871,0.0312209432 0.637298846,0.00430578032 0.549548905,4.15996919e-05 Z" id="Shape" fill="#FFFFFF" fill-rule="nonzero"></path>
    </g>
</svg>